<svg width="19" height="19" viewBox="0 0 19 19" fill="none" xmlns="http://www.w3.org/2000/svg">
  <g clip-path="url(#clip0_61_1959)">
    <path
      d="M18.3097 0.912804L14.4503 0.0221786C14.031 -0.0743057 13.6005 0.14464 13.4298 0.537999L11.6485 4.69425C11.4927 5.05792 11.5966 5.48468 11.9046 5.73331L14.1534 7.57394C12.8175 10.4202 10.4833 12.7878 7.57763 14.1497L5.73701 11.9009C5.48466 11.5929 5.06162 11.489 4.69795 11.6448L0.541695 13.4261C0.144625 13.6005 -0.0743205 14.031 0.0221639 14.4503L0.912789 18.3097C1.00556 18.7105 1.36181 18.9999 1.78115 18.9999C11.2849 18.9999 18.9999 11.2997 18.9999 1.78116C18.9999 1.36554 18.7142 1.00558 18.3097 0.912804Z"
      fill="#828583" />
  </g>
  <defs>
    <clipPath id="clip0_61_1959">
      <rect width="19" height="19" fill="white" />
    </clipPath>
  </defs>
</svg>
