<svg width="14" height="14" viewBox="0 0 14 14" fill="none" xmlns="http://www.w3.org/2000/svg">
  <g clip-path="url(#clip0_51_5805)">
    <path
      d="M8.89587 5.98183e-07C7.96865 -0.000461589 7.06105 0.266918 6.2822 0.77004C5.50334 1.27316 4.88637 1.99057 4.50556 2.83599C4.12476 3.68141 3.99632 4.61884 4.13564 5.53554C4.27496 6.45225 4.67606 7.3092 5.29084 8.00332L0.583374 13.3467L1.2367 13.93L5.93257 8.61001C6.53657 9.08211 7.24459 9.40312 7.99773 9.54624C8.75087 9.68937 9.52734 9.65051 10.2624 9.43288C10.9975 9.21526 11.6699 8.82512 12.2238 8.29505C12.7776 7.76499 13.1968 7.11031 13.4464 6.38548C13.696 5.66064 13.7689 4.8866 13.659 4.12791C13.549 3.36922 13.2593 2.64784 12.8141 2.02372C12.369 1.39961 11.7812 0.890816 11.0996 0.539826C10.4181 0.188836 9.66249 0.00578384 8.89587 0.00583963V5.98183e-07ZM8.89587 8.75C8.11711 8.75 7.35582 8.51907 6.7083 8.08642C6.06078 7.65376 5.55611 7.03881 5.25809 6.31933C4.96007 5.59984 4.88207 4.80811 5.034 4.04431C5.18593 3.28051 5.56098 2.57895 6.11165 2.02828C6.66232 1.47761 7.36389 1.10255 8.12769 0.950623C8.89149 0.798694 9.68322 0.876694 10.4027 1.17471C11.1222 1.47273 11.7371 1.97741 12.1698 2.62493C12.6024 3.27245 12.8334 4.03374 12.8334 4.8125C12.8334 5.85679 12.4185 6.8583 11.6801 7.59672C10.9417 8.33514 9.94016 8.75 8.89587 8.75Z"
      fill="#C5C5C5" />
  </g>
  <defs>
    <clipPath id="clip0_51_5805">
      <rect width="14" height="14" fill="white" />
    </clipPath>
  </defs>
</svg>
