<svg width="23" height="25" viewBox="0 0 23 25" fill="none" xmlns="http://www.w3.org/2000/svg">
  <path
    d="M5.84959 21.875H1.74228V7.27051H5.84959V21.875ZM3.79372 5.27832C2.48034 5.27832 1.41504 4.07715 1.41504 2.62695C1.41504 1.93037 1.66565 1.26232 2.11174 0.769762C2.55783 0.277204 3.16286 0.000488281 3.79372 0.000488281C4.42459 0.000488281 5.02962 0.277204 5.47571 0.769762C5.9218 1.26232 6.17241 1.93037 6.17241 2.62695C6.17241 4.07715 5.10667 5.27832 3.79372 5.27832ZM21.2219 21.875H17.1235V14.7656C17.1235 13.0713 17.0925 10.8984 14.988 10.8984C12.8525 10.8984 12.5253 12.7393 12.5253 14.6436V21.875H8.42241V7.27051H12.3617V9.2627H12.4192C12.9675 8.11523 14.307 6.9043 16.3054 6.9043C20.4622 6.9043 21.2264 9.92676 21.2264 13.8525V21.875H21.2219Z"
    fill="#828583" />
</svg>
