<svg width="24" height="24" viewBox="0 0 24 24" fill="none" xmlns="http://www.w3.org/2000/svg">
  <g clip-path="url(#clip0_55_6406)">
    <path
      d="M24 11.988C24 5.37063 18.624 0 12 0C5.376 0 0 5.37063 0 11.988C0 15.6324 1.656 18.9171 4.248 21.1229C4.272 21.1469 4.296 21.1469 4.296 21.1708C4.512 21.3387 4.728 21.5065 4.968 21.6743C5.088 21.7463 5.184 21.8422 5.304 21.9381C7.224 23.2328 9.528 24 12.024 24C14.52 24 16.824 23.2328 18.744 21.9381C18.864 21.8661 18.96 21.7702 19.08 21.6983C19.296 21.5305 19.536 21.3626 19.752 21.1948C19.776 21.1708 19.8 21.1708 19.8 21.1469C22.344 18.9171 24 15.6324 24 11.988ZM12 22.4895C9.744 22.4895 7.68 21.7702 5.976 20.5714C6 20.3796 6.048 20.1878 6.096 19.996C6.24 19.4685 6.456 18.965 6.72 18.5095C6.984 18.0539 7.296 17.6464 7.68 17.2867C8.04 16.9271 8.472 16.5914 8.904 16.3277C9.36 16.0639 9.84 15.8721 10.368 15.7283C10.896 15.5844 11.448 15.5125 12 15.5125C12.888 15.5125 13.704 15.6803 14.448 15.992C15.192 16.3037 15.84 16.7353 16.392 17.2627C16.944 17.8142 17.376 18.4615 17.688 19.2048C17.856 19.6364 17.976 20.0919 18.048 20.5714C16.32 21.7702 14.256 22.4895 12 22.4895ZM8.328 11.3886C8.112 10.9091 8.016 10.3816 8.016 9.85415C8.016 9.32667 8.112 8.7992 8.328 8.31968C8.544 7.84016 8.832 7.40859 9.192 7.04895C9.552 6.68931 9.984 6.4016 10.464 6.18581C10.944 5.97003 11.472 5.87413 12 5.87413C12.552 5.87413 13.056 5.97003 13.536 6.18581C14.016 6.4016 14.448 6.68931 14.808 7.04895C15.168 7.40859 15.456 7.84016 15.672 8.31968C15.888 8.7992 15.984 9.32667 15.984 9.85415C15.984 10.4056 15.888 10.9091 15.672 11.3886C15.456 11.8681 15.168 12.2997 14.808 12.6593C14.448 13.019 14.016 13.3067 13.536 13.5225C12.576 13.9301 11.4 13.9301 10.44 13.5225C9.96 13.3067 9.528 13.019 9.168 12.6593C8.808 12.2997 8.52 11.8681 8.328 11.3886ZM19.464 19.3487C19.464 19.3007 19.44 19.2767 19.44 19.2288C19.2 18.4855 18.864 17.7662 18.408 17.1189C17.952 16.4715 17.424 15.8961 16.776 15.4166C16.296 15.0569 15.768 14.7453 15.216 14.5055C15.48 14.3377 15.72 14.1219 15.912 13.9301C16.272 13.5704 16.584 13.1868 16.848 12.7552C17.112 12.3237 17.304 11.8681 17.448 11.3646C17.592 10.8611 17.64 10.3576 17.64 9.85415C17.64 9.06294 17.496 8.31968 17.208 7.64835C16.92 6.97702 16.512 6.37762 15.984 5.85015C15.48 5.34665 14.856 4.93906 14.184 4.65135C13.512 4.36364 12.768 4.21978 11.976 4.21978C11.184 4.21978 10.44 4.36364 9.768 4.65135C9.096 4.93906 8.472 5.34665 7.968 5.87413C7.464 6.37762 7.056 7.001 6.768 7.67233C6.48 8.34366 6.336 9.08691 6.336 9.87812C6.336 10.4056 6.408 10.9091 6.552 11.3886C6.696 11.8921 6.888 12.3477 7.152 12.7792C7.392 13.2108 7.728 13.5944 8.088 13.954C8.304 14.1698 8.544 14.3616 8.808 14.5295C8.232 14.7932 7.704 15.1049 7.248 15.4645C6.624 15.9441 6.072 16.5195 5.616 17.1429C5.16 17.7902 4.824 18.4855 4.584 19.2527C4.56 19.3007 4.56 19.3487 4.56 19.3726C2.664 17.4545 1.488 14.8651 1.488 11.988C1.488 6.20979 6.216 1.48651 12 1.48651C17.784 1.48651 22.512 6.20979 22.512 11.988C22.512 14.8651 21.336 17.4545 19.464 19.3487Z"
      fill="#C5C5C5" />
  </g>
  <defs>
    <clipPath id="clip0_55_6406">
      <rect width="24" height="24" fill="white" />
    </clipPath>
  </defs>
</svg>
